# Blender 3.3.0
# www.blender.org
mtllib road_straight.mtl
o Plane
v 2.500000 0.000000 5.000000
v 2.500000 0.000000 -5.000000
v -2.500000 0.000000 5.000000
v -2.500000 0.000000 -5.000000
v 2.500000 0.100000 5.000000
v 2.500000 0.100000 -5.000000
v -2.500000 0.100000 5.000000
v -2.500000 0.100000 -5.000000
v 2.500000 0.000000 0.000000
v -2.500000 0.000000 0.000000
v 0.000000 0.100000 5.000000
v 2.500000 0.100000 0.000000
v -0.000000 0.100000 -5.000000
v -2.500000 0.100000 0.000000
v 0.000000 0.100000 0.000000
v 2.500000 0.000000 -2.500000
v -2.500000 0.000000 2.500000
v 2.500000 0.100000 -2.500000
v -2.500000 0.100000 2.500000
v 2.500000 0.000000 2.500000
v -2.500000 0.000000 -2.500000
v 2.500000 0.100000 2.500000
v -2.500000 0.100000 -2.500000
v 0.000000 0.100000 2.500000
v -0.000000 0.100000 -2.500000
vn -0.0000 1.0000 -0.0000
vn 1.0000 -0.0000 -0.0000
vn -1.0000 -0.0000 -0.0000
vt 0.999904 -0.000528
vt 0.999905 1.000000
vt 0.000095 -0.000528
vt 0.000095 1.000000
vt 0.954459 -0.000528
vt 0.954459 1.000000
vt 0.045541 -0.000528
vt 0.045541 1.000000
vt 0.999905 0.499736
vt 0.000095 0.499736
vt 0.500000 -0.000528
vt 0.954459 0.499736
vt 0.500000 1.000000
vt 0.045541 0.499736
vt 0.500000 0.499736
vt 0.999905 0.749868
vt 0.000095 0.249604
vt 0.954459 0.749868
vt 0.045541 0.249604
vt 0.999905 0.249604
vt 0.000095 0.749868
vt 0.954459 0.249604
vt 0.045541 0.749868
vt 0.500000 0.249604
vt 0.500000 0.749868
s 0
usemtl road
f 25/25/1 6/6/1 13/13/1
f 14/14/1 25/25/1 23/23/1
f 11/11/1 22/22/1 24/24/1
f 15/15/1 18/18/1 25/25/1
f 24/24/1 12/12/1 15/15/1
f 7/7/1 24/24/1 19/19/1
f 22/22/2 20/20/2 9/9/2
f 19/19/3 3/3/3 7/7/3
f 23/23/3 21/21/3 10/10/3
f 19/19/3 17/17/3 3/3/3
f 22/22/2 9/9/2 12/12/2
f 18/18/2 2/2/2 6/6/2
f 23/23/3 10/10/3 14/14/3
f 23/23/1 13/13/1 8/8/1
f 4/4/3 21/21/3 8/8/3
f 19/19/1 15/15/1 14/14/1
f 25/25/1 18/18/1 6/6/1
f 15/15/1 12/12/1 18/18/1
f 24/24/1 22/22/1 12/12/1
f 11/11/1 5/5/1 22/22/1
f 7/7/1 11/11/1 24/24/1
f 19/19/1 24/24/1 15/15/1
f 14/14/1 15/15/1 25/25/1
f 23/23/1 25/25/1 13/13/1
f 18/18/2 16/16/2 2/2/2
f 9/9/2 16/16/2 12/12/2
f 16/16/2 18/18/2 12/12/2
f 1/1/2 20/20/2 5/5/2
f 20/20/2 22/22/2 5/5/2
f 21/21/3 23/23/3 8/8/3
f 10/10/3 17/17/3 14/14/3
f 17/17/3 19/19/3 14/14/3
o Plane.001
v 5.000000 0.000000 5.000000
v 5.000000 0.000000 -5.000000
v -5.000000 0.000000 5.000000
v -5.000000 0.000000 -5.000000
v 0.000000 0.000000 5.000000
v 5.000000 0.000000 -0.000000
v -0.000000 0.000000 -5.000000
v -5.000000 0.000000 0.000000
v 0.000000 0.000000 0.000000
v 2.500000 0.000000 5.000000
v 5.000000 0.000000 -2.500000
v -2.500000 0.000000 -5.000000
v -5.000000 0.000000 2.500000
v -2.500000 0.000000 5.000000
v 5.000000 0.000000 2.500000
v 2.500000 0.000000 -5.000000
v -5.000000 0.000000 -2.500000
v -2.500000 0.000000 0.000000
v 2.500000 0.000000 -0.000000
v 0.000000 0.000000 2.500000
v -0.000000 0.000000 -2.500000
v 2.500000 0.000000 -2.500000
v 2.500000 0.000000 2.500000
v -2.500000 0.000000 2.500000
v -2.500000 0.000000 -2.500000
vn -0.0000 1.0000 -0.0000
vt 1.366313 -2.674426
vt 3.674426 1.366313
vt -2.674426 -0.366313
vt -0.366313 3.674426
vt -0.654057 -1.520369
vt 2.520369 -0.654057
vt 1.654057 2.520369
vt -1.520369 1.654057
vt 0.500000 0.500000
vt 0.356128 -2.097398
vt 3.097398 0.356128
vt 0.643872 3.097398
vt -2.097398 0.643872
vt -1.664241 -0.943341
vt 1.943341 -1.664241
vt 2.664241 1.943341
vt -0.943341 2.664241
vt -0.510185 1.077028
vt 1.510185 -0.077028
vt -0.077028 -0.510185
vt 1.077028 1.510185
vt 2.087213 0.933156
vt 0.933156 -1.087213
vt -1.087213 0.066844
vt 0.066844 2.087213
s 0
usemtl grass
f 37/37/4 42/42/4 50/50/4
f 43/43/4 38/38/4 49/49/4
f 44/44/4 45/45/4 48/48/4
f 41/41/4 46/46/4 47/47/4
f 47/47/4 34/34/4 44/44/4
f 36/36/4 44/44/4 31/31/4
f 27/27/4 47/47/4 36/36/4
f 48/48/4 30/30/4 35/35/4
f 40/40/4 35/35/4 26/26/4
f 31/31/4 48/48/4 40/40/4
f 49/49/4 28/28/4 39/39/4
f 45/45/4 39/39/4 30/30/4
f 34/34/4 49/49/4 45/45/4
f 50/50/4 33/33/4 43/43/4
f 46/46/4 43/43/4 34/34/4
f 32/32/4 50/50/4 46/46/4
f 27/27/4 41/41/4 47/47/4
f 36/36/4 47/47/4 44/44/4
f 31/31/4 44/44/4 48/48/4
f 40/40/4 48/48/4 35/35/4
f 48/48/4 45/45/4 30/30/4
f 37/37/4 29/29/4 42/42/4
f 43/43/4 33/33/4 38/38/4
f 44/44/4 34/34/4 45/45/4
f 41/41/4 32/32/4 46/46/4
f 47/47/4 46/46/4 34/34/4
f 49/49/4 38/38/4 28/28/4
f 45/45/4 49/49/4 39/39/4
f 34/34/4 43/43/4 49/49/4
f 50/50/4 42/42/4 33/33/4
f 46/46/4 50/50/4 43/43/4
f 32/32/4 37/37/4 50/50/4
